<svg width="24" height="24" viewBox="0 0 24 24" fill="none" xmlns="http://www.w3.org/2000/svg">
<path d="M12.0012 24C5.37614 23.9927 0.00727557 18.6244 0 12V11.76C0.131931 5.16545 5.56206 -0.0864308 12.158 0.00107786C18.754 0.0885865 24.0428 5.48268 23.9997 12.0784C23.9566 18.6742 18.5977 23.9987 12.0012 24ZM11.982 21.6H12.0012C17.3018 21.5947 21.5952 17.2953 21.5926 11.9952C21.5899 6.69516 17.2922 2.40002 11.9916 2.40002C6.69101 2.40002 2.39329 6.69516 2.39064 11.9952C2.38799 17.2953 6.68141 21.5947 11.982 21.6ZM13.2013 19.2H10.8011V16.8H13.2013V19.2ZM13.2013 15.6H10.8011C10.7631 14.0372 11.5765 12.577 12.9253 11.7864C13.7174 11.1792 14.4014 10.656 14.4014 9.60001C14.4014 8.27453 13.3268 7.20002 12.0012 7.20002C10.6756 7.20002 9.60096 8.27453 9.60096 9.60001H7.20072V9.49201C7.22001 7.77714 8.15281 6.20282 9.64773 5.3621C11.1426 4.52137 12.9726 4.54195 14.4482 5.41609C15.9238 6.29024 16.821 7.88514 16.8017 9.60001C16.7157 10.8948 16.0212 12.0723 14.9295 12.774C13.9426 13.3934 13.303 14.4394 13.2013 15.6Z" fill="#333333"/>
</svg>
