<svg id="Layer_1" data-name="Layer 1" xmlns="http://www.w3.org/2000/svg" viewBox="0 0 1032.54 325.36"><defs><style>.cls-1{fill:#f79420;}.cls-2{fill:#333;}</style></defs><title>Untitled-1</title><path class="cls-1" d="M138.09,73.37q15.12,0,24.47,8.19t9.35,21.62a30.83,30.83,0,0,1-3.32,14.51q-3.33,6.34-8.73,8.65V127a19.22,19.22,0,0,1,11.89,8.26q4.49,6.57,4.48,16.29,0,13.91-9.19,22.7T142.87,183H88.05V73.37ZM114.3,117.69h19.46a12.22,12.22,0,0,0,8.8-3.24,11.45,11.45,0,0,0,3.25-8.49,11.11,11.11,0,0,0-3.32-8.42,12.15,12.15,0,0,0-8.73-3.17H114.3Zm0,19.46V162h21.93q6.18,0,9.89-3.39a11.76,11.76,0,0,0,3.7-9.11,11.57,11.57,0,0,0-3.7-9q-3.72-3.41-9.89-3.4Z"/><path class="cls-1" d="M288.66,177.77Q290.36,183,285,183H266.73a4.92,4.92,0,0,1-5.25-3.86l-4.17-12.82h-41.7l-4.17,12.82a4.92,4.92,0,0,1-5.25,3.86H188q-5.41,0-3.71-5.25L219.63,77.08q1.23-3.7,5.4-3.71h22.86q4.17,0,5.4,3.71Zm-65.48-34.6h26.56l-13.28-41.23Z"/><path class="cls-1" d="M303.33,183V163.1a8.8,8.8,0,0,1,2-5.72l48.8-59.3H304.56V73.37h81.85V93.29a8.82,8.82,0,0,1-2,5.72l-48.64,59.3h50.65V183Z"/><path class="cls-1" d="M610.33,177.61c.72,1.65.78,3,.16,3.94s-1.8,1.47-3.55,1.47H587.63a5.65,5.65,0,0,1-5.4-3.55l-14.05-32H550.26V183H524V73.37h47.72q17.44,0,28.1,10.19t10.66,26.87a38.47,38.47,0,0,1-4.56,18.92,32.59,32.59,0,0,1-12.74,12.9ZM550.26,98.08v24.71h19a15.15,15.15,0,0,0,10.27-3.4,12.17,12.17,0,0,0,0-17.91,15.15,15.15,0,0,0-10.27-3.4Z"/><path class="cls-2" d="M681.06,73.37q17.46,0,28.11,11t10.66,29.11q0,18.08-10.66,29.11t-28.11,11.05H659.6V183H633.34V73.37Zm-4,55.6q7.1,0,11.43-4.25t4.32-11.2a15,15,0,0,0-4.32-11.19q-4.34-4.24-11.43-4.25H659.6V129Z"/><path class="cls-2" d="M820.21,172.36q-12.68,12.51-33.82,12.51t-33.82-12.51q-12.68-12.51-12.67-33.2V73.37h26.25v65.79q0,9.57,5.41,15.29t14.83,5.71q9.4,0,14.82-5.71t5.41-15.29V73.37h26.25v65.79Q832.87,159.86,820.21,172.36Z"/><path class="cls-2" d="M943.9,177.61c.72,1.65.78,3,.16,3.94s-1.8,1.47-3.55,1.47H921.2a5.65,5.65,0,0,1-5.4-3.55l-14-32H883.83V183H857.58V73.37H905.3q17.44,0,28.1,10.19t10.66,26.87a38.47,38.47,0,0,1-4.56,18.92,32.66,32.66,0,0,1-12.74,12.9ZM883.83,98.08v24.71h19q6.33,0,10.26-3.4a12.15,12.15,0,0,0,0-17.91q-3.93-3.41-10.26-3.4Z"/><path class="cls-2" d="M113.42,217.9v24.84h-3.27V224.22l-8.25,18.52H99.6l-8.28-18.56v18.56H88.05V217.9h3.52l9.18,20.53,9.19-20.53Z"/><path class="cls-2" d="M120.74,227.54A8.82,8.82,0,0,1,124.1,224a9.23,9.23,0,0,1,4.75-1.25,8.77,8.77,0,0,1,4.49,1.11,7.39,7.39,0,0,1,2.83,2.8v-3.59h3.3v19.67h-3.3v-3.67a7.7,7.7,0,0,1-2.89,2.86,8.67,8.67,0,0,1-4.46,1.13,8.92,8.92,0,0,1-4.74-1.29,9,9,0,0,1-3.34-3.63,11.3,11.3,0,0,1-1.22-5.31A11.07,11.07,0,0,1,120.74,227.54ZM135.27,229a6.28,6.28,0,0,0-2.42-2.53,6.52,6.52,0,0,0-3.35-.88,6.67,6.67,0,0,0-3.34.86,6.22,6.22,0,0,0-2.4,2.52,8,8,0,0,0-.9,3.87,8.15,8.15,0,0,0,.9,3.93,6.36,6.36,0,0,0,2.4,2.55,6.8,6.8,0,0,0,6.69,0,6.27,6.27,0,0,0,2.42-2.55,8.07,8.07,0,0,0,.9-3.89A8,8,0,0,0,135.27,229Z"/><path class="cls-2" d="M152.52,223.64a7.59,7.59,0,0,1,3.89-.93v3.37h-.86q-5.49,0-5.49,6v10.7h-3.27V223.07h3.27v3.19A6.28,6.28,0,0,1,152.52,223.64Z"/><path class="cls-2" d="M173,242.74l-7.71-8.69v8.69H162V216.18h3.27v15.61l7.57-8.72h4.56l-9.26,9.8,9.29,9.87Z"/><path class="cls-2" d="M200.08,234.12H184.37a6.19,6.19,0,0,0,6.38,6.18,6,6,0,0,0,3.54-1,5.25,5.25,0,0,0,2-2.64h3.52a8.45,8.45,0,0,1-3.16,4.61,9.5,9.5,0,0,1-5.89,1.78,9.91,9.91,0,0,1-5-1.26,8.82,8.82,0,0,1-3.46-3.57,11,11,0,0,1-1.26-5.36,11.26,11.26,0,0,1,1.22-5.35,8.61,8.61,0,0,1,3.43-3.54,10.23,10.23,0,0,1,5.07-1.23,9.83,9.83,0,0,1,5,1.22,8.49,8.49,0,0,1,3.32,3.35,10,10,0,0,1,1.16,4.83A17.08,17.08,0,0,1,200.08,234.12ZM196,228.25a5.39,5.39,0,0,0-2.24-2,6.93,6.93,0,0,0-3.14-.7,6.07,6.07,0,0,0-4.22,1.58,6.44,6.44,0,0,0-2,4.38h12.42A6,6,0,0,0,196,228.25Z"/><path class="cls-2" d="M210.28,225.76v11.59a2.74,2.74,0,0,0,.61,2A3,3,0,0,0,213,240h2.41v2.77h-2.95a5.86,5.86,0,0,1-4.09-1.26,5.39,5.39,0,0,1-1.36-4.13V225.76h-2.55v-2.69H207v-4.95h3.27v4.95h5.13v2.69Z"/><path class="cls-2" d="M232.63,219.23a2.22,2.22,0,0,1,1.58-3.8,2.05,2.05,0,0,1,1.53.64,2.3,2.3,0,0,1,0,3.16,2.06,2.06,0,0,1-1.53.65A2.16,2.16,0,0,1,232.63,219.23Zm3.16,3.84v19.67h-3.26V223.07Z"/><path class="cls-2" d="M258.54,224.88a8.38,8.38,0,0,1,2.23,6.26v11.6h-3.23V231.61a6.32,6.32,0,0,0-1.47-4.5,5.29,5.29,0,0,0-4-1.56,5.35,5.35,0,0,0-4.11,1.61,6.6,6.6,0,0,0-1.53,4.7v10.88h-3.26V223.07h3.26v2.8a6.49,6.49,0,0,1,2.64-2.33,8.19,8.19,0,0,1,3.68-.83A8,8,0,0,1,258.54,224.88Z"/><path class="cls-2" d="M296.22,223.07,284.38,252H281l3.87-9.47L277,223.07h3.63L286.75,239l6.1-15.93Z"/><path class="cls-2" d="M304.85,241.8a8.87,8.87,0,0,1-3.51-3.57,10.92,10.92,0,0,1-1.28-5.36,10.66,10.66,0,0,1,1.31-5.33,9,9,0,0,1,3.57-3.56,11,11,0,0,1,10.12,0,9.07,9.07,0,0,1,3.57,3.54,11.48,11.48,0,0,1,0,10.71A9.34,9.34,0,0,1,315,241.8a10.41,10.41,0,0,1-5.09,1.26A10.08,10.08,0,0,1,304.85,241.8Zm8.31-2.44a6.22,6.22,0,0,0,2.49-2.47,7.87,7.87,0,0,0,1-4,8.07,8.07,0,0,0-.94-4,6.08,6.08,0,0,0-2.44-2.46,7,7,0,0,0-6.55,0,5.89,5.89,0,0,0-2.38,2.46,8.29,8.29,0,0,0-.9,4,8.48,8.48,0,0,0,.88,4,5.83,5.83,0,0,0,2.35,2.46,6.59,6.59,0,0,0,3.23.81A6.91,6.91,0,0,0,313.16,239.36Z"/><path class="cls-2" d="M343.48,223.07v19.67h-3.26v-2.91a6.37,6.37,0,0,1-2.6,2.35,8.09,8.09,0,0,1-3.68.84,8.76,8.76,0,0,1-4.13-1,6.9,6.9,0,0,1-2.89-2.85,9.46,9.46,0,0,1-1.06-4.63V223.07h3.23v11.09a6.27,6.27,0,0,0,1.47,4.47,5.26,5.26,0,0,0,4,1.56,5.36,5.36,0,0,0,4.13-1.62,6.61,6.61,0,0,0,1.51-4.7v-10.8Z"/><path class="cls-2" d="M356.53,223.64a7.59,7.59,0,0,1,3.89-.93v3.37h-.86q-5.49,0-5.49,6v10.7H350.8V223.07h3.27v3.19A6.28,6.28,0,0,1,356.53,223.64Z"/><path class="cls-2" d="M396.63,217.72v25h-3.27V231.4H380.62v11.34h-3.26v-25h3.26v11h12.74v-11Z"/><path class="cls-2" d="M404,227.54a8.87,8.87,0,0,1,3.35-3.54,9.27,9.27,0,0,1,4.76-1.25,8.73,8.73,0,0,1,4.48,1.11,7.35,7.35,0,0,1,2.84,2.8v-3.59h3.3v19.67h-3.3v-3.67a7.78,7.78,0,0,1-2.89,2.86,8.68,8.68,0,0,1-4.47,1.13,8.86,8.86,0,0,1-8.07-4.92,11.18,11.18,0,0,1-1.22-5.31A11,11,0,0,1,404,227.54ZM418.52,229a6.42,6.42,0,0,0-2.42-2.53,6.87,6.87,0,0,0-6.69,0A6.24,6.24,0,0,0,407,229a8,8,0,0,0-.9,3.87,8.15,8.15,0,0,0,.9,3.93,6.34,6.34,0,0,0,5.74,3.43,6.59,6.59,0,0,0,3.36-.88,6.41,6.41,0,0,0,2.42-2.55,8.07,8.07,0,0,0,.9-3.89A8,8,0,0,0,418.52,229Z"/><path class="cls-2" d="M445.43,224.88a8.34,8.34,0,0,1,2.23,6.26v11.6h-3.23V231.61a6.32,6.32,0,0,0-1.47-4.5,5.26,5.26,0,0,0-4-1.56,5.38,5.38,0,0,0-4.11,1.61,6.6,6.6,0,0,0-1.53,4.7v10.88H430V223.07h3.26v2.8a6.49,6.49,0,0,1,2.64-2.33,8.19,8.19,0,0,1,3.68-.83A8,8,0,0,1,445.43,224.88Z"/><path class="cls-2" d="M454.8,227.54a8.82,8.82,0,0,1,3.36-3.54,9.33,9.33,0,0,1,4.79-1.25,8.86,8.86,0,0,1,4.27,1.06,7.58,7.58,0,0,1,3,2.78V216.18h3.3v26.56h-3.3V239a7.65,7.65,0,0,1-2.87,2.89,8.58,8.58,0,0,1-4.45,1.13,8.95,8.95,0,0,1-8.11-4.92,11.3,11.3,0,0,1-1.22-5.31A11.07,11.07,0,0,1,454.8,227.54ZM469.33,229a6.28,6.28,0,0,0-2.42-2.53,6.55,6.55,0,0,0-3.35-.88,6.65,6.65,0,0,0-3.34.86,6.24,6.24,0,0,0-2.41,2.52,8.07,8.07,0,0,0-.89,3.87,8.26,8.26,0,0,0,.89,3.93,6.38,6.38,0,0,0,2.41,2.55,6.46,6.46,0,0,0,3.34.88,6.55,6.55,0,0,0,3.35-.88,6.27,6.27,0,0,0,2.42-2.55,8.07,8.07,0,0,0,.9-3.89A8,8,0,0,0,469.33,229Z"/><path class="cls-2" d="M521.53,223.46l-16-45.69L470.11,77.08c-.83-2.48-2.62-3.71-5.41-3.71H441.85c-2.78,0-4.58,1.23-5.41,3.71L401.07,177.77q-1.68,5.23,3.72,5.24H423c2.79,0,4.55-1.28,5.26-3.86l4.17-12.81h41.7l4.17,12.81L499,242.73H944.49v-3.2ZM440,143.18l13.23-41.1,0-.14,9.29,28.84,4,12.4Z"/></svg>