<svg width="20" height="19" viewBox="0 0 20 19" fill="none" xmlns="http://www.w3.org/2000/svg">
<path d="M9.99121 18.7422C14.9746 18.7422 19.0879 14.6289 19.0879 9.6543C19.0879 4.67969 14.9658 0.566406 9.98242 0.566406C5.00781 0.566406 0.90332 4.67969 0.90332 9.6543C0.90332 14.6289 5.0166 18.7422 9.99121 18.7422ZM7.91699 14.1631C7.5918 13.8379 7.60938 13.3457 7.91699 13.0469L11.5205 9.66309L7.91699 6.2793C7.60059 5.98926 7.60938 5.47949 7.93457 5.17188C8.22461 4.89062 8.69922 4.9082 9.01562 5.19824L12.7334 8.6875C13.2959 9.21484 13.2959 10.1289 12.7334 10.6475L9.01562 14.1367C8.73438 14.4092 8.18945 14.418 7.91699 14.1631Z" fill="#F4EEE8"/>
</svg>
