<svg width="20" height="19" viewBox="0 0 20 19" fill="none" xmlns="http://www.w3.org/2000/svg">
<path d="M10.0088 18.7422C5.02539 18.7422 0.912109 14.6289 0.912109 9.6543C0.912109 4.67969 5.03418 0.566406 10.0176 0.566406C14.9922 0.566406 19.0967 4.67969 19.0967 9.6543C19.0967 14.6289 14.9834 18.7422 10.0088 18.7422ZM12.083 14.1631C12.4082 13.8379 12.3906 13.3457 12.083 13.0469L8.47949 9.66309L12.083 6.2793C12.3994 5.98926 12.3906 5.47949 12.0654 5.17188C11.7754 4.89062 11.3008 4.9082 10.9844 5.19824L7.2666 8.6875C6.7041 9.21484 6.7041 10.1289 7.2666 10.6475L10.9844 14.1367C11.2656 14.4092 11.8105 14.418 12.083 14.1631Z" fill="#F4EEE8"/>
</svg>
