<svg width="26" height="26" viewBox="0 0 26 26" fill="none" xmlns="http://www.w3.org/2000/svg">
<path d="M21.9375 7.3125H4.0625C3.61377 7.3125 3.25 7.67627 3.25 8.125V21.125C3.25 21.5737 3.61377 21.9375 4.0625 21.9375H21.9375C22.3862 21.9375 22.75 21.5737 22.75 21.125V8.125C22.75 7.67627 22.3862 7.3125 21.9375 7.3125Z" stroke="black" stroke-width="2" stroke-linecap="round" stroke-linejoin="round"/>
<path d="M8.9375 10.5625V7.3125C8.9375 6.23506 9.36551 5.20175 10.1274 4.43988C10.8892 3.67801 11.9226 3.25 13 3.25C14.0774 3.25 15.1108 3.67801 15.8726 4.43988C16.6345 5.20175 17.0625 6.23506 17.0625 7.3125V10.5625" stroke="black" stroke-width="2" stroke-linecap="round" stroke-linejoin="round"/>
</svg>
