<svg width="28" height="28" viewBox="0 0 28 28" fill="none" xmlns="http://www.w3.org/2000/svg">
<path d="M7.94434 5.2666C8.44531 5.2666 8.79688 5.48633 9.33301 6.01367L13.8682 10.5137C13.9121 10.5576 13.9561 10.5928 14 10.5928C14.0352 10.5928 14.0791 10.5576 14.123 10.5137L18.6582 6.01367C19.1943 5.48633 19.5459 5.2666 20.0469 5.2666C20.7148 5.2666 21.1631 5.77637 21.1631 6.47949C21.1631 6.84863 21.0225 7.28809 20.8643 7.72754L15.3799 22.6338C15.0635 23.4863 14.6152 23.9346 14 23.9346C13.3848 23.9346 12.9277 23.4951 12.6113 22.6338L7.12695 7.72754C6.96875 7.28809 6.82812 6.84863 6.82812 6.47949C6.82812 5.77637 7.27637 5.2666 7.94434 5.2666Z" fill="#1C1C1E"/>
</svg>
